<?xml version="1.0" encoding="iso-8859-1"?>
<!-- Generator: Adobe Illustrator 19.0.0, SVG Export Plug-In . SVG Version: 6.00 Build 0)  -->
<svg version="1.1" id="Layer_1" xmlns="http://www.w3.org/2000/svg" xmlns:xlink="http://www.w3.org/1999/xlink" x="0px" y="0px"
	 viewBox="0 0 512 512" style="enable-background:new 0 0 512 512;" xml:space="preserve">
<g>
	<g>
		<path d="M498.995,104.434c-8.387-8.387-19.541-13.006-31.403-13.006c-24.487,0-44.408,19.921-44.408,44.408h15.673
			c0-15.845,12.891-28.735,28.735-28.735c7.677,0,14.894,2.988,20.319,8.415c5.427,5.427,8.416,12.643,8.416,20.32v206.507
			c-7.751-6.596-17.783-10.589-28.735-10.589c-24.487,0-44.408,19.921-44.408,44.408h15.673c0-15.845,12.891-28.735,28.735-28.735
			c15.844,0,28.735,12.89,28.735,28.735s-12.891,28.735-28.735,28.735H101.878v15.673h365.714c24.487,0,44.408-19.921,44.408-44.408
			V135.837C512,123.973,507.382,112.821,498.995,104.434z"/>
	</g>
</g>
<g>
	<g>
		<path d="M44.408,159.347h154.122v-15.673H44.408C19.921,143.673,0,163.594,0,188.082v240.326c0,11.864,4.618,23.016,13.006,31.402
			c8.386,8.387,19.539,13.006,31.402,13.006c24.487,0,44.408-19.921,44.408-44.408H73.143c0,15.845-12.89,28.735-28.735,28.735
			c-7.677,0-14.893-2.988-20.32-8.415c-5.426-5.427-8.415-12.643-8.415-20.32V221.901c7.752,6.595,17.783,10.589,28.735,10.589
			c24.487,0,44.408-19.921,44.408-44.408H73.143c0,15.845-12.89,28.735-28.735,28.735c-15.845,0-28.735-12.89-28.735-28.735
			C15.673,172.237,28.563,159.347,44.408,159.347z"/>
	</g>
</g>
<g>
	<g>
		<path d="M410.122,159.347v-15.673H299.702c-3.258-18.215-17.65-32.607-35.865-35.865V96.653h15.673V39.184h-47.02v57.469h15.673
			v11.155c-20.76,3.714-36.571,21.89-36.571,43.702c0,10.952,3.994,20.984,10.589,28.735h-9.078l-34.729,160.914h30.891L256,211.234
			l46.736,129.925h30.89l-34.729-160.914h-9.078c4.985-5.859,8.474-13.021,9.883-20.898H410.122z M248.163,54.857h15.673V80.98
			h-15.673V54.857z M198.245,325.486h-0.456l27.965-129.567h19.098L198.245,325.486z M227.265,151.51
			c0-15.845,12.89-28.735,28.735-28.735c15.844,0,28.735,12.89,28.735,28.735c0,15.845-12.891,28.735-28.735,28.735
			C240.155,180.245,227.265,167.355,227.265,151.51z M314.21,325.486h-0.457l-46.607-129.567h19.099L314.21,325.486z"/>
	</g>
</g>
<g>
	<g>
		<path d="M256,130.612c-11.523,0-20.898,9.375-20.898,20.898s9.375,20.898,20.898,20.898s20.898-9.375,20.898-20.898
			S267.523,130.612,256,130.612z M256,156.735c-2.881,0-5.224-2.344-5.224-5.224c0-2.881,2.344-5.224,5.224-5.224
			s5.224,2.344,5.224,5.224C261.224,154.391,258.881,156.735,256,156.735z"/>
	</g>
</g>
<g>
	<g>
		<path d="M324.344,348.679c-37.683,37.684-99.002,37.684-136.688,0l-11.083,11.082c21.898,21.898,50.663,32.847,79.427,32.847
			s57.529-10.949,79.428-32.847L324.344,348.679z"/>
	</g>
</g>
<g>
</g>
<g>
</g>
<g>
</g>
<g>
</g>
<g>
</g>
<g>
</g>
<g>
</g>
<g>
</g>
<g>
</g>
<g>
</g>
<g>
</g>
<g>
</g>
<g>
</g>
<g>
</g>
<g>
</g>
</svg>
